<?xml version="1.0" standalone="no"?>
<!DOCTYPE svg PUBLIC "-//W3C//DTD SVG 1.0//EN" "http://www.w3.org/TR/2001/REC-SVG-20010904/DTD/svg10.dtd">
<svg xmlns="http://www.w3.org/2000/svg" xmlns:xlink="http://www.w3.org/1999/xlink" id="body_1" width="102" height="77">

<g transform="matrix(0.19921875 0 0 0.20052084 0 0)">
	<g transform="matrix(1.1354263 0 0 1.1354263 64 -0)">
		<g>
            <path d="M169.1 2.625C 147.00801 2.625 129.1 20.534 129.1 42.625L129.1 42.625L129.1 82.625C 129.1 104.716 147.00801 122.625 169.1 122.625C 191.192 122.625 209.1 104.716 209.1 82.625L209.1 82.625L209.1 42.625C 209.1 20.534 191.191 2.625 169.1 2.625z" stroke="none" fill="#9DD7F5" fill-rule="nonzero" />
			<g>
                <path d="M209.1 82.625C 209.1 104.716 191.192 122.625 169.1 122.625C 169.1 83.625 169.1 42.625 169.1 2.625C 191.192 2.625 209.1 20.534 209.1 42.625L209.1 42.625L209.1 82.625z" stroke="none" fill="#78B9EB" fill-rule="nonzero" />
			</g>
			<g>
                <path d="M109.199 122.625L60 122.625C 26.862 122.625 0 149.488 0 182.625L0 182.625L109.199 182.625L109.199 122.625z" stroke="none" fill="#9DD7F5" fill-rule="nonzero" />
			</g>
			<g>
                <path d="M111.895 212.625L81.526 251.33301C 61.072 277.404 65.626 315.12 91.696 335.574L91.696 335.574L159.1 249.66L111.895 212.625z" stroke="none" fill="#9DD7F5" fill-rule="nonzero" />
			</g>
			<g>
                <path d="M226.305 212.625L256.67398 251.33301C 277.128 277.404 272.57397 315.12 246.50398 335.574L246.50398 335.574L179.1 249.661L226.305 212.625z" stroke="none" fill="#78B9EB" fill-rule="nonzero" />
			</g>
			<g>
                <path d="M229 122.625L278.199 122.625C 311.337 122.625 338.199 149.488 338.199 182.625L338.199 182.625L229 182.625L229 122.625z" stroke="none" fill="#78B9EB" fill-rule="nonzero" />
			</g>
			<g>
                <path d="M169.139 182.625L239.68001 85.545C 219.878 71.132996 195.50401 62.622997 169.139 62.622997C 142.774 62.622997 118.40001 71.132996 98.59901 85.545L98.59901 85.545L169.139 182.625z" stroke="none" fill="#FF9811" fill-rule="nonzero" />
			</g>
			<g>
                <path d="M169.139 182.625L239.68001 85.545C 219.878 71.132996 195.50401 62.622997 169.139 62.622997C 169.139 102.625 169.139 182.625 169.139 182.625z" stroke="none" fill="#FF5023" fill-rule="nonzero" />
			</g>
			<g>
                <path d="M169.139 182.625L98.607 85.538C 78.781006 99.915 63.156002 120.468 55.009003 145.542C 46.863003 170.617 47.423004 196.42801 55.011 219.71301L55.011 219.71301L169.139 182.625z" stroke="none" fill="#FF5023" fill-rule="nonzero" />
			</g>
            <path d="M169.139 182.65L169.139 182.625L169.1 182.638L169.061 182.625L169.061 182.65L55.01 219.702C 62.557 242.999 77.274994 264.212 98.604004 279.708C 119.908005 295.186 144.593 302.62802 169.054 302.626L169.054 302.626L169.054 302.627C 169.07 302.627 169.084 302.626 169.1 302.626C 169.11601 302.626 169.13 302.627 169.14601 302.627L169.14601 302.627L169.14601 302.626C 193.60701 302.62802 218.29301 295.186 239.59601 279.708C 260.92502 264.212 275.643 242.99901 283.19 219.70201L283.19 219.70201L169.139 182.65z" stroke="none" fill="#FF9811" fill-rule="nonzero" />
			<g>
                <path d="M169.139 182.625L169.13301 302.626C 193.62201 302.647 218.34502 295.20502 239.67401 279.708C 261.005 264.211 275.721 242.99901 283.271 219.701L283.271 219.701L169.139 182.625z" stroke="none" fill="#D80027" fill-rule="nonzero" />
			</g>
			<g>
                <path d="M169.139 182.625L283.266 219.714C 290.854 196.42801 291.414 170.616 283.266 145.543C 275.12 120.466995 259.496 99.917 239.66899 85.537L239.66899 85.537L169.139 182.625z" stroke="none" fill="#802812" fill-rule="nonzero" />
			</g>
			<g>
                <path d="M207.346 130.06L230.957 202.734L169.139 247.648L107.319 202.734L130.933 130.06L207.346 130.06" stroke="none" fill="#FFDA44" fill-rule="nonzero" />
			</g>
			<g>
                <path d="M207.346 130.06L230.957 202.734L169.139 247.648L169.1 130.06L207.346 130.06" stroke="none" fill="#FF9811" fill-rule="nonzero" />
			</g>
		</g>
		<g>
		</g>
		<g>
		</g>
		<g>
		</g>
		<g>
		</g>
		<g>
		</g>
		<g>
		</g>
		<g>
		</g>
		<g>
		</g>
		<g>
		</g>
		<g>
		</g>
		<g>
		</g>
		<g>
		</g>
		<g>
		</g>
		<g>
		</g>
		<g>
		</g>
	</g>
</g>
</svg>